# xmcd CD database file
#
# Track frame offsets:
#	150
#	22823
#	45447
#	68233
#	89151
#	108364
#	124629
#	148535
#	171566
#	195101
#	214609
#	236001
#	248610
#	263321
#
# Disc length: 3721 seconds
#
# Revision: 1
# Processed by: cddbd v1.5.2PL0 Copyright (c) Steve Scherf et al.
# Submitted via: CDex 1.51
#
DISCID=b40e870e
DTITLE=The Derek Trucks Band - Already Free
DYEAR=2009
DGENRE=Blues
TTITLE0=Down In The Flood
TTITLE1=Something To Make You Happy
TTITLE2=Maybe This Time
TTITLE3=Sweet Inspiration
TTITLE4=Don't Miss Me
TTITLE5=Get What You Desearve
TTITLE6=Our Love
TTITLE7=Down Don't Bother Me
TTITLE8=Days Is Almost Gone
TTITLE9=Back Where I Started
TTITLE10=I Know
TTITLE11=Already Free
TTITLE12=Goin' Home
TTITLE13=Soul Of A Man
EXTD=YEAR: 2009
EXTT0=
EXTT1=
EXTT2=
EXTT3=
EXTT4=
EXTT5=
EXTT6=
EXTT7=
EXTT8=
EXTT9=
EXTT10=
EXTT11=
EXTT12=
EXTT13=
PLAYORDER=
